<svg viewBox="0 0 500 500" xmlns="http://www.w3.org/2000/svg"><circle style="fill:#1f2041;transform-box:fill-box;transform-origin:56.4189% 45.5962%" cx="251.093" cy="250.399" r="243.148"/><path style="fill:#f15152;transform-box:fill-box;transform-origin:16.8176% 35.3894%" d="m456.031 119.367-152.617.67c-42.8-.567-63.742 5.385-63.11 57.215l-1.556 108.789c-.341 22.105 20.401 34.851 32.965 45.343 20.511 16.159 19.497 32.878 19.026 63.402.229 19.317 8.861 33.331 34.333 33.734 0 0 91.543.467 91.543.591 0 .124 152.518-134.499 39.416-309.744z"/><rect style="fill:#edddd4;transform-box:fill-box;transform-origin:-29.7698% 30.5242%" x="317.49" y="164.299" width="118.18" height="211.912" rx="17" ry="17"/><circle style="fill:#f15152;transform-box:fill-box;transform-origin:-253.975% -307.67%" cx="377.446" cy="340.927" r="15.649"/><rect style="fill:#edddd4;transform-box:fill-box;transform-origin:130.619% 48.5384%" x="47.909" y="163.563" width="171.86" height="133.06" rx="5" ry="5"/><rect style="fill:#1f2041;transform-box:fill-box;transform-origin:148.633% 51.4777%" x="65.225" y="184.439" width="139.561" height="90.821" rx="10" ry="10"/><path style="fill:#edddd4;transform-box:fill-box;transform-origin:50% 50%" d="M119.597 296.286c8.322.13 15.27 17.85-10.307 25.643-7.891 2.405-5.647 9.311-2.687 8.281 0 0 55.722.707 57.618 1.098 1.896.393 3.463-5.906-5.333-10.023-24.352-11.394-11.607-24.884-11.607-24.884l-27.684-.115z" transform="rotate(-.982)"/><path d="M30.366 343.584c26.297-.684 219.569-1.27 219.569-1.27 11.121 0 20.137 8.676 20.137 19.379v32.664c0 10.703-9.016 19.379-20.137 19.379 0 0-115.742 3.572-163.949 2.516l-55.62-72.668z" style="fill:#edddd4"/><ellipse style="fill:none;stroke:#1f2041;stroke-width:13px;transform-origin:284.426px 231.352px" cx="253.933" cy="252.186" rx="237.523" ry="236.554"/></svg>